<svg width="42" height="42" viewBox="0 0 42 42" fill="none" xmlns="http://www.w3.org/2000/svg">
<path d="M22.96 42H19.04C17.7153 42 16.597 41.0078 16.4395 39.69L16.0212 36.407C15.1865 36.1358 14.3815 35.8015 13.6168 35.4113L11.0023 37.443C9.94175 38.2637 8.449 38.1693 7.5285 37.2225L4.77225 34.4662C3.8325 33.5545 3.738 32.0617 4.55875 31.003L6.5905 28.3868C6.1985 27.622 5.86425 26.817 5.59475 25.9823L2.30475 25.564C0.99225 25.403 0 24.2847 0 22.96V19.04C0 17.7153 0.99225 16.597 2.31 16.4395L5.593 16.0212C5.86425 15.1865 6.1985 14.3815 6.58875 13.6168L4.55875 11.0023C3.73625 9.94175 3.8325 8.44725 4.781 7.52675L7.53725 4.7705C8.449 3.83075 9.9435 3.738 11.0005 4.557L13.615 6.5905C14.3798 6.20025 15.1847 5.866 16.0212 5.59475L16.4395 2.30475C16.597 0.99225 17.7153 0 19.04 0H22.96C24.2847 0 25.403 0.99225 25.5605 2.31L25.9788 5.593C26.8153 5.86425 27.6202 6.1985 28.385 6.58875L30.9995 4.557C32.0618 3.73625 33.5527 3.83075 34.4732 4.77925L37.2295 7.5355C38.1693 8.44725 38.2637 9.94 37.443 10.9987L35.4113 13.615C35.8033 14.3798 36.1375 15.1848 36.407 16.0195L39.697 16.4377C41.0078 16.597 42 17.7153 42 19.04V22.96C42 24.2847 41.0078 25.403 39.69 25.5605L36.407 25.9788C36.1358 26.8135 35.8015 27.6185 35.4113 28.3832L37.443 30.9977C38.2655 32.0582 38.1692 33.551 37.2207 34.4715L34.4645 37.2278C33.5528 38.1675 32.0583 38.2638 31.0013 37.4413L28.385 35.4095C27.6202 35.8015 26.8152 36.1357 25.9805 36.4052L25.5623 39.6953C25.403 41.0078 24.2847 42 22.96 42V42ZM13.5275 33.495C13.6728 33.495 13.8215 33.5317 13.9545 33.6052C14.9187 34.1442 15.9635 34.5782 17.059 34.8932C17.395 34.9895 17.6417 35.2765 17.6855 35.623L18.1755 39.473C18.228 39.9122 18.6078 40.25 19.04 40.25H22.96C23.3922 40.25 23.772 39.9123 23.8227 39.4818L24.3145 35.6248C24.3583 35.2783 24.605 34.9913 24.941 34.895C26.0365 34.58 27.0812 34.146 28.0455 33.607C28.3517 33.4355 28.7333 33.4653 29.008 33.6805L32.0705 36.0605C32.4223 36.3335 32.9158 36.3108 33.2168 36.001L35.9905 33.2272C36.3072 32.9192 36.3317 32.4257 36.0587 32.0722L33.6788 29.0097C33.4635 28.7332 33.4337 28.3535 33.6052 28.0473C34.1442 27.083 34.5782 26.0383 34.8932 24.9428C34.9895 24.6068 35.2765 24.36 35.623 24.3163L39.473 23.8262C39.9122 23.772 40.25 23.3922 40.25 22.96V19.04C40.25 18.6078 39.9123 18.228 39.4818 18.1773L35.6248 17.6855C35.2783 17.6417 34.9913 17.395 34.895 17.059C34.58 15.9635 34.146 14.9187 33.607 13.9545C33.4355 13.6482 33.4635 13.2685 33.6805 12.992L36.0605 9.9295C36.3353 9.576 36.3107 9.0825 36.0027 8.785L33.229 6.01125C32.9228 5.69275 32.4275 5.66825 32.074 5.943L29.0115 8.323C28.7332 8.53825 28.3535 8.568 28.0473 8.3965C27.0865 7.8575 26.0418 7.42525 24.9428 7.1085C24.6068 7.01225 24.36 6.72525 24.3163 6.37875L23.8262 2.52875C23.772 2.08775 23.3922 1.75 22.96 1.75H19.04C18.6078 1.75 18.228 2.08775 18.1773 2.51825L17.6855 6.37525C17.6417 6.72175 17.395 7.00875 17.059 7.10675C15.96 7.42175 14.9153 7.85575 13.9545 8.393C13.6482 8.56625 13.2685 8.53475 12.9902 8.32125L9.92775 5.94125C9.57425 5.6665 9.0825 5.691 8.78325 5.999L6.0095 8.7745C5.69275 9.0825 5.66825 9.576 5.94125 9.9295L8.32125 12.992C8.5365 13.2685 8.56625 13.6482 8.39475 13.9545C7.854 14.9187 7.42175 15.9635 7.10675 17.059C7.0105 17.395 6.7235 17.6417 6.377 17.6855L2.527 18.1755C2.08775 18.228 1.75 18.6078 1.75 19.04V22.96C1.75 23.3922 2.08775 23.772 2.51825 23.8227L6.37525 24.3145C6.72175 24.3583 7.00875 24.605 7.105 24.941C7.42 26.0365 7.854 27.0812 8.393 28.0455C8.5645 28.3517 8.5365 28.7315 8.3195 29.008L5.9395 32.0705C5.66475 32.424 5.68925 32.9175 5.99725 33.215L8.771 35.9888C9.07725 36.3055 9.569 36.33 9.926 36.057L12.9885 33.677C13.1477 33.558 13.3368 33.495 13.5275 33.495V33.495Z" fill="white"/>
<path d="M21 29.75C16.1752 29.75 12.25 25.8247 12.25 20.9999C12.25 16.1752 16.1752 12.2499 21 12.2499C25.8247 12.2499 29.75 16.1752 29.75 20.9999C29.75 25.8247 25.8247 29.75 21 29.75ZM21 13.9999C17.1395 13.9999 14 17.1394 14 20.9999C14 24.8604 17.1395 28 21 28C24.8605 28 28 24.8604 28 20.9999C28 17.1394 24.8605 13.9999 21 13.9999Z" fill="white"/>
</svg>
