<svg width="42" height="42" viewBox="0 0 42 42" fill="none" xmlns="http://www.w3.org/2000/svg">
<g clip-path="url(#clip0)">
<path d="M41.9075 3.65073L41.8283 2.89801C41.6698 1.35294 40.4021 0.164431 38.8174 0.0455796L38.1835 0.00596251C36.2819 -0.0732716 34.4199 0.639835 33.0729 1.98681L26.7342 8.28592L5.97489 8.24631C4.23174 8.24631 2.5282 8.95941 1.26046 10.2272L0.388885 11.0987C0.111566 11.3761 -0.00728544 11.8515 0.0719486 12.2476C0.1908 12.6438 0.468119 12.9607 0.864289 13.0796L17.3846 17.5959L13.5417 21.4388L6.56914 21.6765C5.85604 21.6765 5.18255 21.9538 4.66752 22.5084L3.99404 23.1819C3.71672 23.4592 3.59786 23.895 3.6771 24.2912C3.79595 24.6874 4.07327 24.9647 4.42982 25.1232L13.304 28.4906L16.8696 37.6818C17.028 38.0779 17.3846 38.3553 17.7808 38.3949C18.1769 38.4345 18.5335 38.3156 18.8108 37.9987L19.5239 37.2856C19.9993 36.8102 20.2766 36.1763 20.3559 35.384L20.5936 28.3718L24.476 24.5685L28.9528 41.1284C29.0716 41.5246 29.3886 41.8416 29.7847 41.9604C29.9036 42 29.9828 42 30.1017 42C30.4186 42 30.7355 41.8812 30.9732 41.6435L31.8448 40.7719C33.1126 39.5041 33.8257 37.8006 33.8257 36.0178V15.2585L39.9663 9.07826C41.4321 7.65205 42.1452 5.63158 41.9075 3.65073ZM38.857 7.96899L32.4391 14.3869C32.2806 14.5454 32.2014 14.7435 32.2014 14.9416V36.0178C32.2014 37.4044 31.6467 38.6722 30.6959 39.6626L30.2997 40.0588L25.5853 22.9046C25.5061 22.6273 25.308 22.4292 25.0307 22.35C24.9514 22.35 24.9118 22.3104 24.8326 22.3104C24.6345 22.3104 24.4364 22.3896 24.278 22.5481L19.207 27.5398C19.0485 27.6983 18.9693 27.8567 18.9693 28.0944L18.7316 35.384C18.7316 35.6217 18.6523 35.9782 18.375 36.2159L18.0977 36.4933L14.651 27.5794C14.5718 27.3813 14.4133 27.2229 14.1756 27.1436L5.57872 23.8554L5.81642 23.6177C5.93527 23.4989 6.25221 23.2612 6.64838 23.2612L13.9775 23.0235C14.1756 23.0235 14.3737 22.9442 14.4925 22.7858L19.5239 17.7544C19.722 17.5563 19.8012 17.279 19.722 17.0017C19.6428 16.7244 19.4447 16.5263 19.1674 16.447L1.97357 11.7326L2.36974 11.3364C3.32055 10.3856 4.62791 9.83099 5.97489 9.83099L27.0512 9.8706C27.2492 9.8706 27.4473 9.79137 27.6058 9.6329L34.1822 3.09609C35.2123 2.06605 36.6385 1.51141 38.1043 1.59064L38.7382 1.63026C39.5305 1.66988 40.1644 2.30375 40.2436 3.05647L40.3229 3.8092C40.4813 5.35426 39.9663 6.85971 38.857 7.96899Z" fill="white"/>
</g>
<defs>
<clipPath id="clip0">
<rect width="42" height="42" fill="white"/>
</clipPath>
</defs>
</svg>
