<svg width="42" height="42" viewBox="0 0 42 42" fill="none" xmlns="http://www.w3.org/2000/svg">
<path d="M20.9303 38.4419H5.23253C4.26973 38.4419 3.48838 37.6605 3.48838 36.6977V5.30232C3.48838 4.33951 4.26981 3.55817 5.23253 3.55817H20.9303C21.8948 3.55817 22.6744 2.77854 22.6744 1.81402C22.6744 0.849492 21.8948 0.0697021 20.9303 0.0697021H5.23253C2.34765 0.0697021 0 2.41744 0 5.30232V36.6977C0 39.5825 2.34765 41.9302 5.23253 41.9302H20.9303C21.8948 41.9302 22.6744 41.1506 22.6744 40.186C22.6744 39.2215 21.8948 38.4419 20.9303 38.4419Z" fill="white"/>
<path d="M41.4799 19.758L30.8752 9.29291C30.1915 8.61615 29.0857 8.62493 28.4089 9.31038C27.7322 9.99584 27.7391 11.0999 28.4264 11.7767L36.0048 19.2557H15.6973C14.7327 19.2557 13.9531 20.0353 13.9531 20.9998C13.9531 21.9644 14.7327 22.7441 15.6973 22.7441H36.0048L28.4264 30.2231C27.7392 30.8999 27.734 32.0039 28.4089 32.6894C28.7507 33.0347 29.2008 33.2091 29.6508 33.2091C30.0938 33.2091 30.5368 33.0417 30.8752 32.7068L41.4799 22.2416C41.8113 21.9137 41.9996 21.4672 41.9996 20.9998C41.9996 20.5325 41.813 20.0877 41.4799 19.758Z" fill="white"/>
</svg>
