<svg width="42" height="42" viewBox="0 0 42 42" fill="none" xmlns="http://www.w3.org/2000/svg">
<path d="M28.3044 16.4348C28.8084 16.4348 29.2174 16.0257 29.2174 15.5217V4.56519C29.2173 2.04887 27.1704 0 24.6522 0H4.56519C2.04707 0 0 2.04887 0 4.56519V37.4347C0 39.9511 2.04707 41.9999 4.56519 41.9999H24.6522C27.1704 41.9999 29.2173 39.9511 29.2173 37.4347V26.4782C29.2173 25.9742 28.8083 25.5651 28.3043 25.5651C27.8003 25.5651 27.3913 25.9742 27.3913 26.4782V37.4347C27.3913 38.9449 26.1624 40.1739 24.6522 40.1739H4.56519C3.05498 40.1739 1.82606 38.9449 1.82606 37.4347V4.56519C1.82606 3.05498 3.05498 1.82606 4.56519 1.82606H24.6522C26.1624 1.82606 27.3913 3.05498 27.3913 4.56519V15.5217C27.3913 16.0257 27.8004 16.4348 28.3044 16.4348Z" fill="white"/>
<path d="M41.0865 20.087H11.8691C11.3651 20.087 10.9561 20.496 10.9561 21C10.9561 21.504 11.3651 21.913 11.8691 21.913H41.0865C41.5905 21.913 41.9995 21.504 41.9995 21C41.9995 20.496 41.5905 20.087 41.0865 20.087Z" fill="white"/>
<path d="M41.7317 20.3573L36.2534 14.879C35.8974 14.5229 35.3185 14.5229 34.9624 14.879C34.6063 15.2351 34.6063 15.814 34.9624 16.1701L39.7942 21.0019L34.9624 25.8337C34.6063 26.1898 34.6063 26.7687 34.9624 27.1248C35.1414 27.3019 35.375 27.3914 35.6088 27.3914C35.8426 27.3914 36.0763 27.302 36.2534 27.1267L41.7317 21.6484C42.0878 21.2922 42.0878 20.7133 41.7317 20.3573Z" fill="white"/>
</svg>
