<svg width="40" height="40" viewBox="0 0 40 40" fill="none" xmlns="http://www.w3.org/2000/svg">
<path d="M38.3964 27.0268C35.9142 28.1564 33.2176 28.7375 30.4905 28.7305C19.878 28.7188 11.2778 20.1187 11.2661 9.50613C11.2587 6.77909 11.8393 4.08253 12.9685 1.60027L13.6977 0L12.0947 0.721246C4.73643 4.04466 0.00607074 11.369 0.0034191 19.443C-0.000309768 30.7925 9.19724 39.9963 20.5468 40C28.6237 39.9948 35.9498 35.2623 39.2754 27.9019L39.9966 26.2976L38.3964 27.0268ZM29.9946 36.1937C20.7486 41.413 9.02223 38.1488 3.80289 28.9029C-1.41645 19.6569 1.8478 7.93064 11.0937 2.7113C10.3253 4.8941 9.93522 7.19208 9.94028 9.50613C9.95345 20.8503 19.1464 30.0432 30.4905 30.0563C32.8045 30.0614 35.1025 29.6714 37.2853 28.9029C35.5642 31.9517 33.0434 34.4727 29.9946 36.1937Z" fill="white"/>
</svg>
