<svg width="40" height="40" viewBox="0 0 40 40" fill="none" xmlns="http://www.w3.org/2000/svg">
<g clip-path="url(#clip0)">
<path d="M29.0689 0.0859713C28.8671 -0.0271883 28.6209 -0.0273547 28.4188 0.085472C28.0978 0.26478 27.983 0.670324 28.1623 0.991248C31.5178 7.02756 31.5178 14.3688 28.1623 20.4051C22.8013 30.0491 10.6374 33.5212 0.99336 28.1602C0.790255 28.0454 0.541887 28.0453 0.338615 28.16C0.0184404 28.3406 -0.094636 28.7466 0.0860865 29.0668C3.85463 35.811 10.9738 39.992 18.6995 39.998C26.421 39.9949 33.5365 35.8143 37.2976 29.0708C43.0293 18.7946 39.3451 5.81759 29.0689 0.0859713ZM30.3656 34.8772C21.4209 41.3291 8.93958 39.3082 2.48773 30.3635C7.74358 32.5589 13.6595 32.5589 18.9153 30.3635C29.7755 25.8271 34.902 13.3458 30.3656 2.48562C32.1025 3.73845 33.6265 5.26244 34.8793 6.99936C41.3312 15.944 39.3103 28.4254 30.3656 34.8772Z" fill="white"/>
</g>
<defs>
<clipPath id="clip0">
<rect width="40" height="40" fill="white"/>
</clipPath>
</defs>
</svg>
