<svg width="70" height="70" viewBox="0 0 70 70" fill="none" xmlns="http://www.w3.org/2000/svg">
<path d="M70 55.6445C70 47.7289 63.5601 41.2891 55.6445 41.2891H43.824L31.5193 33.0859H17.7443L25.9474 41.2891H11.5214L7.41986 33.0859H0V43.3398C0 51.2554 6.43986 57.6953 14.3555 57.6953H25.5294L19.377 70H31.9238L41.1523 57.6953H70V55.6445ZM27.6463 37.1875H30.2775L36.4298 41.2891H31.7479L27.6463 37.1875ZM29.873 65.8984H26.0136L32.166 53.5938H39.1016L29.873 65.8984ZM44.2285 53.5938L47.3047 49.4922H29.6309L27.5801 53.5938H14.3555C8.70146 53.5938 4.10156 48.9938 4.10156 43.3398V37.1875H4.88482L8.98639 45.3906H55.6445C60.5962 45.3906 64.7395 48.9192 65.6924 53.5938H44.2285Z" fill="white"/>
<path d="M35 28.7109C42.9156 28.7109 49.3555 22.2711 49.3555 14.3555C49.3555 6.43986 42.9156 0 35 0C27.0844 0 20.6445 6.43986 20.6445 14.3555C20.6445 22.2711 27.0844 28.7109 35 28.7109ZM35 4.10156C40.654 4.10156 45.2539 8.70146 45.2539 14.3555C45.2539 20.0095 40.654 24.6094 35 24.6094C29.346 24.6094 24.7461 20.0095 24.7461 14.3555C24.7461 8.70146 29.346 4.10156 35 4.10156Z" fill="white"/>
<path d="M32.3493 19.907L35.0008 17.2557L37.6524 19.907L40.5524 17.007L37.901 14.3554L40.5524 11.7039L37.6524 8.80383L35.0008 11.4552L32.3493 8.80383L29.4492 11.7039L32.1006 14.3554L29.4492 17.007L32.3493 19.907Z" fill="white"/>
</svg>
