<svg width="46" height="46" viewBox="0 0 46 46" fill="none" xmlns="http://www.w3.org/2000/svg">
<path d="M23.0001 0.673828C13.5691 0.673828 5.92383 8.31908 5.92383 17.7501C5.92383 32.1117 23.0001 45.3258 23.0001 45.3258C23.0001 45.3258 40.0763 32.1118 40.0763 17.7501C40.0763 8.31908 32.4311 0.673828 23.0001 0.673828ZM23.0001 24.5609C19.2386 24.5609 16.1893 21.5116 16.1893 17.7502C16.1893 13.9887 19.2386 10.9394 23.0001 10.9394C26.7616 10.9394 29.8109 13.9887 29.8109 17.7502C29.8109 21.5116 26.7616 24.5609 23.0001 24.5609Z" fill="#FF4A4A"/>
<path d="M22.9995 0.673828C22.4538 0.673828 21.9143 0.700512 21.3818 0.750555C30.0539 1.56562 36.8404 8.86479 36.8404 17.7501C36.8404 29.3811 25.6409 40.2589 21.3818 43.9751C22.3817 44.8476 22.9995 45.3258 22.9995 45.3258C22.9995 45.3258 40.0757 32.1118 40.0757 17.7501C40.0757 8.31908 32.4305 0.673828 22.9995 0.673828Z" fill="#E7343F"/>
<path d="M23.0002 46C22.8548 46 22.7092 45.953 22.5878 45.8591C22.2522 45.5994 14.3113 39.4003 9.26179 30.7806C9.07357 30.4594 9.18147 30.0464 9.50266 29.8583C9.82377 29.6701 10.2367 29.7779 10.4249 30.0992C14.6967 37.3914 21.296 43.0627 23.0005 44.4612C24.167 43.5054 27.6233 40.5538 31.0389 36.4705C33.4785 33.5539 35.4201 30.6393 36.8098 27.8077C38.5302 24.3022 39.4025 20.9184 39.4025 17.7506C39.4025 15.255 38.8566 12.8589 37.7801 10.629C37.6183 10.2938 37.7589 9.89081 38.0941 9.72891C38.4292 9.56701 38.8322 9.70762 38.9941 10.0428C40.1596 12.4571 40.7506 15.0503 40.7506 17.7505C40.7506 21.1303 39.8296 24.7184 38.0133 28.4152C36.5731 31.3466 34.5685 34.3549 32.0551 37.3566C27.7884 42.4526 23.5894 45.7224 23.4127 45.8592C23.2913 45.953 23.1457 46 23.0002 46ZM8.56245 28.7301C8.31304 28.7301 8.07325 28.5912 7.95636 28.3519C6.16057 24.6776 5.25 21.1107 5.25 17.7502C5.25 7.96276 13.2128 0 23.0002 0C28.8136 0 34.267 2.85407 37.5881 7.63483C37.8005 7.94057 37.7247 8.3605 37.419 8.57289C37.1134 8.78537 36.6933 8.70954 36.4809 8.4038C33.4117 3.98574 28.3723 1.34802 23.0002 1.34802C13.9559 1.34802 6.59802 8.70595 6.59802 17.7502C6.59802 20.9037 7.46249 24.2715 9.16737 27.7599C9.33088 28.0944 9.19216 28.498 8.85777 28.6615C8.76262 28.708 8.66173 28.7301 8.56245 28.7301ZM23.0002 25.2351C18.8731 25.2351 15.5154 21.8775 15.5154 17.7502C15.5154 16.365 15.8968 15.0119 16.6186 13.8372C16.8133 13.52 17.2284 13.4209 17.5457 13.6157C17.8628 13.8106 17.9619 14.2257 17.7671 14.5428C17.1759 15.5051 16.8634 16.6143 16.8634 17.7502C16.8634 21.134 19.6163 23.887 23.0002 23.887C26.384 23.887 29.1369 21.1341 29.1369 17.7502C29.1369 14.3664 26.384 11.6135 23.0002 11.6135C21.7106 11.6135 20.4768 12.0088 19.4321 12.7567C19.1293 12.9734 18.7084 12.9037 18.4917 12.601C18.275 12.2984 18.3447 11.8773 18.6473 11.6606C19.9222 10.7479 21.4274 10.2655 23.0001 10.2655C27.1272 10.2655 30.485 13.6231 30.485 17.7503C30.4851 21.8775 27.1275 25.2351 23.0002 25.2351Z" fill="black"/>
</svg>
