<svg width="32" height="32" viewBox="0 0 32 32" fill="none" xmlns="http://www.w3.org/2000/svg">
<g clip-path="url(#clip0)">
<path d="M30.3999 14.4H17.6001V1.5999C17.6001 0.716895 16.8832 0 15.9999 0C15.1169 0 14.4 0.716895 14.4 1.5999V14.4H1.5999C0.716895 14.4 0 15.1169 0 15.9999C0 16.8832 0.716895 17.6001 1.5999 17.6001H14.4V30.3999C14.4 31.2832 15.1169 32.0001 15.9999 32.0001C16.8832 32.0001 17.6001 31.2832 17.6001 30.3999V17.6001H30.3999C31.2832 17.6001 32.0001 16.8832 32.0001 15.9999C32.0001 15.1169 31.2832 14.4 30.3999 14.4V14.4Z" fill="white"/>
</g>
<defs>
<clipPath id="clip0">
<rect width="32" height="32" fill="white"/>
</clipPath>
</defs>
</svg>
