<svg width="70" height="70" viewBox="0 0 70 70" fill="none" xmlns="http://www.w3.org/2000/svg">
<path d="M59.7495 10.2505C59.156 9.657 58.1912 9.657 57.5977 10.2505C57.0043 10.844 57.0043 11.8088 57.5977 12.4023C63.633 18.4405 66.9564 26.4661 66.9564 35.0001C66.9564 52.6218 52.6217 66.9566 34.9999 66.9566C17.3782 66.9566 3.04343 52.6218 3.04343 35.0001C3.04343 17.8896 16.5595 3.87444 33.4781 3.08009V9.20961C19.9226 10.0008 9.13043 21.2495 9.13043 34.9999C9.13043 49.2647 20.7352 60.8694 34.9999 60.8694C49.2647 60.8694 60.8694 49.2647 60.8694 34.9999C60.8694 28.0882 58.1789 21.5935 53.2912 16.7087C52.6977 16.1152 51.7329 16.1152 51.1394 16.7087C50.5459 17.3022 50.5459 18.267 51.1394 18.8605C55.4519 23.17 57.8259 28.9039 57.8259 35.0001C57.8259 47.5879 47.5876 57.8261 34.9998 57.8261C22.4119 57.8261 12.1737 47.5879 12.1737 35.0001C12.1737 22.9266 21.6025 13.0384 33.478 12.25V18.337C24.9596 19.11 18.2609 26.2835 18.2609 34.9999C18.2609 44.2308 25.7691 51.739 34.9999 51.739C44.2308 51.739 51.739 44.2308 51.739 34.9999C51.739 30.529 49.9981 26.326 46.836 23.1639C46.2425 22.5704 45.2777 22.5704 44.6842 23.1639C44.0907 23.7574 44.0907 24.7222 44.6842 25.3157C47.2711 27.9026 48.6954 31.3418 48.6954 35.0001C48.6954 42.5509 42.5506 48.6957 34.9998 48.6957C27.4489 48.6957 21.3041 42.5509 21.3041 35.0001C21.3041 27.9696 26.6484 22.2266 33.478 21.4596V30.7179C31.7097 31.3479 30.4346 33.0218 30.4346 35.0031C30.4346 37.5201 32.4828 39.5683 34.9998 39.5683C37.5168 39.5683 39.565 37.5201 39.565 35.0031C39.565 33.0218 38.2897 31.3479 36.5216 30.7179V1.52179C36.5217 0.681786 35.8399 0 34.9999 0C15.7013 0 0 15.7013 0 34.9999C0 54.2985 15.7013 69.9999 34.9999 69.9999C54.2985 69.9999 69.9999 54.2985 69.9999 34.9999C70 25.6535 66.36 16.8639 59.7495 10.2505Z" fill="white"/>
</svg>
