<svg width="40" height="40" viewBox="0 0 40 40" fill="none" xmlns="http://www.w3.org/2000/svg">
<path d="M37.2698 10.0271C37.0683 9.68058 36.624 9.56301 36.2775 9.76448L32.7334 11.8132C32.3869 12.0147 32.2693 12.459 32.4708 12.8055C32.6722 13.152 33.1166 13.2696 33.4631 13.0681L37.0072 11.0194C37.3537 10.8178 37.4713 10.3736 37.2698 10.0271Z" fill="white"/>
<path d="M37.0072 28.9846L33.4631 26.9359C33.1166 26.7344 32.6722 26.852 32.4708 27.1985C32.2693 27.545 32.3869 27.9893 32.7334 28.1907L36.2775 30.2394C36.624 30.4409 37.0683 30.3233 37.2698 29.9768C37.4713 29.6302 37.3537 29.186 37.0072 28.9846Z" fill="white"/>
<path d="M20.0562 34.3409C19.6543 34.311 19.3044 34.6126 19.2745 35.0146C19.2718 35.0505 19.2718 35.0866 19.2745 35.1226V39.216C19.2446 39.618 19.5462 39.9679 19.9482 39.9977C20.3501 40.0276 20.7 39.726 20.7299 39.3241C20.7326 39.2881 20.7326 39.252 20.7299 39.216V35.1226C20.7596 34.7208 20.458 34.3708 20.0562 34.3409Z" fill="white"/>
<path d="M7.26674 11.8132L3.72258 9.76448C3.37608 9.56301 2.93176 9.68058 2.7303 10.0271C2.52883 10.3736 2.6464 10.8179 2.9929 11.0194L6.53706 13.0681C6.88356 13.2696 7.32789 13.152 7.52935 12.8055C7.73081 12.4589 7.61324 12.0147 7.26674 11.8132Z" fill="white"/>
<path d="M20.0559 0.0020403C19.654 -0.0278285 19.3041 0.273766 19.2742 0.675692C19.2715 0.711675 19.2715 0.747758 19.2742 0.783741V4.87717C19.2765 5.27699 19.6001 5.60063 19.9999 5.60284C20.4029 5.60284 20.7296 5.27619 20.7296 4.87316V0.783841C20.7594 0.381915 20.4578 0.0319091 20.0559 0.0020403Z" fill="white"/>
<path d="M13.0641 6.53706L11.0194 2.9929C10.8179 2.6464 10.3736 2.52883 10.0271 2.7303C9.68058 2.93176 9.56301 3.37608 9.76448 3.72258L11.8092 7.26674C12.0107 7.61324 12.455 7.73081 12.8015 7.52935C13.148 7.32779 13.2655 6.88356 13.0641 6.53706Z" fill="white"/>
<path d="M20.1081 13.525C20.0721 13.5223 20.036 13.5223 20.0001 13.525C16.424 13.525 13.5251 16.4239 13.5251 19.9999C13.5251 20.4029 13.8518 20.7296 14.2548 20.7296C14.6563 20.7274 14.9805 20.4013 14.9805 19.9999C14.9783 17.2299 17.2221 14.9825 19.992 14.9803C19.9947 14.9803 19.9973 14.9803 20.0001 14.9803C20.402 15.0102 20.7519 14.7086 20.7818 14.3067C20.8116 13.9048 20.51 13.5547 20.1081 13.525Z" fill="white"/>
<path d="M39.8899 19.9438C39.8632 19.5834 39.5767 19.2969 39.2163 19.2701H35.1229C34.7209 19.2402 34.371 19.5418 34.3412 19.9438C34.3113 20.3457 34.6129 20.6956 35.0148 20.7255C35.0508 20.7282 35.087 20.7282 35.123 20.7255H39.2164C39.6182 20.6957 39.9198 20.3457 39.8899 19.9438Z" fill="white"/>
<path d="M4.98532 19.2745C4.94934 19.2718 4.91325 19.2718 4.87727 19.2745H0.783846C0.38192 19.3044 0.0803258 19.6544 0.110195 20.0562C0.136956 20.4165 0.423416 20.7031 0.783846 20.7298H4.87727C5.2792 20.7597 5.6291 20.4581 5.65897 20.0562C5.68884 19.6543 5.38724 19.3043 4.98532 19.2745Z" fill="white"/>
<path d="M20.0029 9.29102C14.0887 9.29021 9.29363 14.084 9.29272 19.9982C9.29232 22.8394 10.4211 25.5644 12.4304 27.5731C14.436 29.5837 17.1601 30.712 19.9999 30.7083C25.9141 30.7091 30.7092 25.9154 30.71 20.0012C30.7108 14.087 25.9171 9.29182 20.0029 9.29102ZM26.5429 26.5548C22.9293 30.1684 17.0704 30.1684 13.4568 26.5548C11.7185 24.8165 10.7434 22.4579 10.7466 19.9997C10.7431 17.5448 11.7185 15.1899 13.4568 13.4566V13.4686C17.0704 9.85502 22.9293 9.85502 26.5429 13.4686C30.1567 17.0823 30.1567 22.9412 26.5429 26.5548Z" fill="white"/>
<path d="M30.2372 36.281C30.2366 36.2799 30.236 36.2788 30.2353 36.2778L28.1866 32.7336C27.9851 32.3871 27.5408 32.2696 27.1943 32.471C26.8478 32.6725 26.7302 33.1168 26.9317 33.4633L28.9804 37.0074C29.1811 37.3535 29.6241 37.4719 29.9707 37.2721C30.318 37.0719 30.4374 36.6282 30.2372 36.281Z" fill="white"/>
<path d="M29.9971 2.7303C29.6506 2.52883 29.2063 2.6464 29.0048 2.9929L26.9561 6.53706C26.7533 6.88276 26.8691 7.32738 27.2147 7.53015C27.2154 7.53055 27.216 7.53095 27.2167 7.53135C27.5629 7.73321 28.0072 7.61625 28.2091 7.26995C28.2097 7.26885 28.2104 7.26774 28.211 7.26674L30.2597 3.72258C30.4612 3.37598 30.3436 2.93176 29.9971 2.7303Z" fill="white"/>
<path d="M12.8055 32.471C12.459 32.2696 12.0147 32.3871 11.8132 32.7336L9.76448 36.2778C9.56301 36.6243 9.68058 37.0686 10.0271 37.2701C10.3736 37.4715 10.8179 37.3539 11.0194 37.0074L13.0681 33.4633C13.2696 33.1167 13.152 32.6725 12.8055 32.471Z" fill="white"/>
<path d="M7.52935 27.1946C7.32789 26.8481 6.88356 26.7305 6.53706 26.932L2.9929 28.9807C2.6464 29.1821 2.52883 29.6265 2.7303 29.973C2.93176 30.3195 3.37608 30.437 3.72258 30.2356L7.26674 28.1868C7.61324 27.9853 7.73081 27.5411 7.52935 27.1946Z" fill="white"/>
</svg>
