<svg width="40" height="40" viewBox="0 0 40 40" fill="none" xmlns="http://www.w3.org/2000/svg">
<path d="M19.9999 8.69531C13.7667 8.69531 8.69556 13.7664 8.69556 19.9997C8.69556 26.233 13.7667 31.3041 19.9999 31.3041C26.2331 31.3041 31.3043 26.2329 31.3043 19.9997C31.3043 13.7665 26.2331 8.69531 19.9999 8.69531ZM19.9999 29.5649C14.7257 29.5649 10.4347 25.274 10.4347 19.9997C10.4347 14.7254 14.7257 10.4345 19.9999 10.4345C25.2742 10.4345 29.5652 14.7255 29.5652 19.9997C29.5652 25.2739 25.2742 29.5649 19.9999 29.5649Z" fill="white"/>
<path d="M20.0001 12.1738C17.63 12.1738 15.4135 13.2306 13.9191 15.0732C13.6166 15.4462 13.6737 15.9938 14.0467 16.2963C14.2078 16.427 14.4014 16.4906 14.5939 16.4906C14.8469 16.4906 15.0978 16.3807 15.2697 16.1688C16.4326 14.7352 18.1567 13.913 20.0002 13.913C20.4804 13.913 20.8697 13.5237 20.8697 13.0434C20.8697 12.5632 20.4803 12.1738 20.0001 12.1738Z" fill="white"/>
<path d="M13.4792 17.4102C13.0147 17.2919 12.5415 17.5746 12.4221 18.0387C12.4216 18.0403 12.4199 18.0472 12.4195 18.0488C12.3026 18.5136 12.5846 18.9827 13.049 19.1009C13.1206 19.1191 13.1922 19.1278 13.2628 19.1278C13.6507 19.1278 14.0052 18.8651 14.1062 18.4724C14.1067 18.4709 14.1084 18.464 14.1088 18.4623C14.2256 17.9975 13.9438 17.5284 13.4792 17.4102Z" fill="white"/>
<path d="M19.9999 0C19.5197 0 19.1304 0.389297 19.1304 0.869531V6.08695C19.1304 6.56719 19.5197 6.95648 19.9999 6.95648C20.4801 6.95648 20.8694 6.56719 20.8694 6.08695V0.869531C20.8694 0.389297 20.4801 0 19.9999 0Z" fill="white"/>
<path d="M19.9999 33.0435C19.5197 33.0435 19.1304 33.4328 19.1304 33.913V39.1304C19.1304 39.6107 19.5197 40 19.9999 40C20.4801 40 20.8694 39.6107 20.8694 39.1304V33.913C20.8694 33.4328 20.4801 33.0435 19.9999 33.0435Z" fill="white"/>
<path d="M10.777 9.54697L7.08776 5.85768C6.74823 5.51814 6.19761 5.51814 5.85792 5.85768C5.51839 6.19721 5.51839 6.74783 5.85792 7.08744L9.54721 10.7767C9.71706 10.9466 9.93955 11.0314 10.1621 11.0314C10.3846 11.0314 10.6072 10.9466 10.7769 10.7767C11.1165 10.4372 11.1165 9.88658 10.777 9.54697Z" fill="white"/>
<path d="M34.1422 32.9126L30.453 29.2234C30.1135 28.8839 29.5628 28.8839 29.2232 29.2234C28.8836 29.5629 28.8836 30.1136 29.2232 30.4532L32.9124 34.1424C33.0822 34.3122 33.3047 34.3971 33.5272 34.3971C33.7497 34.3971 33.9724 34.3122 34.1421 34.1424C34.4817 33.8028 34.4817 33.2522 34.1422 32.9126Z" fill="white"/>
<path d="M6.08695 19.1304H0.869531C0.389297 19.1304 0 19.5197 0 19.9999C0 20.4801 0.389297 20.8694 0.869531 20.8694H6.08695C6.56719 20.8694 6.95648 20.4801 6.95648 19.9999C6.95648 19.5197 6.56719 19.1304 6.08695 19.1304Z" fill="white"/>
<path d="M39.1304 19.1304H33.913C33.4328 19.1304 33.0435 19.5197 33.0435 19.9999C33.0435 20.4801 33.4328 20.8694 33.913 20.8694H39.1304C39.6107 20.8694 40 20.4801 40 19.9999C40 19.5197 39.6107 19.1304 39.1304 19.1304Z" fill="white"/>
<path d="M10.7769 29.2234C10.4374 28.8839 9.88675 28.8839 9.54714 29.2234L5.85792 32.9126C5.51839 33.2522 5.51839 33.8028 5.85792 34.1424C6.02776 34.3122 6.25026 34.3971 6.47276 34.3971C6.69526 34.3971 6.91792 34.3122 7.08761 34.1424L10.7768 30.4532C11.1164 30.1136 11.1164 29.563 10.7769 29.2234Z" fill="white"/>
<path d="M34.1422 5.85768C33.8027 5.51814 33.2521 5.51814 32.9124 5.85768L29.2232 9.5469C28.8836 9.88643 28.8836 10.4371 29.2232 10.7767C29.3931 10.9464 29.6156 11.0314 29.8381 11.0314C30.0606 11.0314 30.2832 10.9465 30.4529 10.7767L34.1421 7.08744C34.4817 6.74791 34.4817 6.19729 34.1422 5.85768Z" fill="white"/>
</svg>
