<svg width="36" height="36" viewBox="0 0 36 36" fill="none" xmlns="http://www.w3.org/2000/svg">
<g clip-path="url(#clip0)">
<path d="M17.998 30.0503C17.3196 30.0503 16.7695 30.6003 16.7695 31.2788V34.7715C16.7695 35.45 17.3196 36 17.998 36C18.6766 36 19.2265 35.45 19.2265 34.7715V31.2788C19.2265 30.6002 18.6764 30.0503 17.998 30.0503Z" fill="white"/>
<path d="M17.998 5.95053C18.6766 5.95053 19.2265 5.4005 19.2265 4.72206V1.22896C19.2265 0.550514 18.6766 0.000488281 17.998 0.000488281C17.3196 0.000488281 16.7695 0.550514 16.7695 1.22896V4.72206C16.7695 5.4005 17.3196 5.95053 17.998 5.95053Z" fill="white"/>
<path d="M7.74238 26.5202L5.27169 28.9895C4.79176 29.4691 4.7916 30.247 5.27119 30.7268C5.51115 30.9667 5.82564 31.0868 6.14013 31.0868C6.45445 31.0868 6.76861 30.9669 7.00857 30.7272L9.47927 28.2579C9.95919 27.7783 9.95935 27.0004 9.47976 26.5206C8.99984 26.0407 8.22214 26.0407 7.74238 26.5202Z" fill="white"/>
<path d="M27.388 9.83859C27.7024 9.83859 28.0167 9.71869 28.2566 9.4789L30.727 7.00951C31.2068 6.52976 31.2069 5.75205 30.7273 5.27213C30.2476 4.79221 29.4699 4.79205 28.99 5.27197L26.5196 7.74135C26.0398 8.22095 26.0397 8.99881 26.5193 9.47857C26.7591 9.71869 27.0735 9.83859 27.388 9.83859Z" fill="white"/>
<path d="M5.94972 18.0004C5.94972 17.322 5.39969 16.772 4.72125 16.772H1.22847C0.550026 16.772 0 17.322 0 18.0004C0 18.6789 0.550026 19.2289 1.22847 19.2289H4.72125C5.39969 19.2289 5.94972 18.6789 5.94972 18.0004Z" fill="white"/>
<path d="M34.7715 16.772H31.2771C30.5984 16.772 30.0486 17.322 30.0486 18.0004C30.0486 18.6789 30.5984 19.2289 31.2771 19.2289H34.7715C35.4501 19.2289 35.9999 18.6789 35.9999 18.0004C35.9999 17.3222 35.4501 16.772 34.7715 16.772Z" fill="white"/>
<path d="M7.74204 9.47869C7.98184 9.71849 8.29633 9.83839 8.61065 9.83839C8.92498 9.83839 9.23946 9.71849 9.47926 9.47869C9.95902 8.99894 9.95902 8.22107 9.47926 7.74131L7.00988 5.27193C6.53012 4.79217 5.75225 4.79217 5.27266 5.27193C4.7929 5.75169 4.7929 6.52955 5.27266 7.00914L7.74204 9.47869Z" fill="white"/>
<path d="M28.258 26.5205C27.7782 26.0408 27.0004 26.0406 26.5206 26.5204C26.0407 27.0001 26.0407 27.778 26.5204 28.2576L28.9895 30.727C29.2295 30.9669 29.5438 31.0868 29.8583 31.0868C30.1726 31.0868 30.4871 30.9669 30.7269 30.7271C31.2068 30.2474 31.2068 29.4695 30.727 28.9899L28.258 26.5205Z" fill="white"/>
<path d="M17.9995 8.43848C12.7274 8.43848 8.43823 12.728 8.43823 18.0004C8.43823 23.2726 12.7274 27.5619 17.9995 27.5619C23.2721 27.5619 27.5615 23.2726 27.5615 18.0004C27.5615 12.728 23.2719 8.43848 17.9995 8.43848ZM17.9995 25.105C14.0821 25.105 10.8952 21.9179 10.8952 18.0004C10.8952 14.0827 14.0821 10.8954 17.9995 10.8954C21.9173 10.8954 25.1046 14.0827 25.1046 18.0004C25.1046 21.9179 21.9173 25.105 17.9995 25.105Z" fill="white"/>
</g>
<defs>
<clipPath id="clip0">
<rect width="36" height="36" fill="white"/>
</clipPath>
</defs>
</svg>
